<svg width="761" height="515" viewBox="0 0 761 515" fill="none" xmlns="http://www.w3.org/2000/svg">
<path opacity="0.4" d="M65.304 21.9606C71.3683 21.9606 76.2843 17.0445 76.2843 10.9803C76.2843 4.91605 71.3683 0 65.304 0C59.2398 0 54.3237 4.91605 54.3237 10.9803C54.3237 17.0445 59.2398 21.9606 65.304 21.9606Z" fill="white"/>
<path opacity="0.4" d="M482.555 21.9606C488.62 21.9606 493.536 17.0445 493.536 10.9803C493.536 4.91605 488.62 0 482.555 0C476.491 0 471.575 4.91605 471.575 10.9803C471.575 17.0445 476.491 21.9606 482.555 21.9606Z" fill="white"/>
<path opacity="0.4" d="M691.181 21.9606C697.245 21.9606 702.161 17.0445 702.161 10.9803C702.161 4.91605 697.245 0 691.181 0C685.117 0 680.201 4.91605 680.201 10.9803C680.201 17.0445 685.117 21.9606 691.181 21.9606Z" fill="white"/>
<path opacity="0.92" d="M134.083 112.093C134.083 112.093 107.864 112.093 75.521 112.093C43.1784 112.093 -34.0405 112.093 16.9595 112.093V514.704H75.521H134.083V112.093Z" fill="white"/>
<path opacity="0.12" d="M342.708 112.093L284.147 112.093H225.585V514.704H284.147H342.708V112.093Z" fill="white"/>
<path opacity="0.92" d="M551.083 112C551.083 112 524.864 112 492.521 112L433.959 112V514.611H492.521H551.083V112Z" fill="white"/>
<path opacity="0.92" d="M760.083 112C760.083 112 733.864 112 701.521 112L642.959 112V514.611H701.521H760.083V112Z" fill="white"/>
</svg>
